<?xml version="1.0" standalone="no"?>
<!DOCTYPE svg PUBLIC "-//W3C//DTD SVG 20010904//EN"
 "http://www.w3.org/TR/2001/REC-SVG-20010904/DTD/svg10.dtd">
<svg version="1.0" xmlns="http://www.w3.org/2000/svg"
 width="256.000000pt" height="256.000000pt" viewBox="0 0 256.000000 256.000000"
 preserveAspectRatio="xMidYMid meet">
<metadata>
Created by potrace 1.14, written by Peter Selinger 2001-2017
</metadata>
<g transform="translate(0.000000,256.000000) scale(0.100000,-0.100000)"
fill="#000000" stroke="none">
<path d="M820 2024 c-256 -141 -503 -276 -550 -301 -47 -25 -93 -53 -104 -62
-59 -52 -84 -197 -45 -272 10 -21 30 -49 43 -63 19 -18 22 -25 11 -29 -7 -3
-26 -27 -42 -54 -24 -41 -28 -59 -28 -123 0 -64 4 -82 28 -122 15 -27 32 -48
37 -48 15 0 12 -27 -4 -33 -7 -3 -25 -29 -40 -58 -34 -70 -35 -144 -2 -216 41
-88 68 -99 411 -172 77 -17 295 -64 485 -106 190 -42 357 -79 372 -81 25 -5
69 14 178 78 68 39 783 441 832 467 31 16 51 35 55 50 6 22 -9 40 -32 41 -6 0
-87 -43 -180 -96 -94 -52 -195 -109 -225 -126 -30 -17 -178 -100 -328 -185
-150 -84 -283 -153 -297 -153 -13 0 -54 7 -92 16 -37 9 -75 17 -83 19 -34 7
-171 37 -250 55 -47 11 -96 21 -110 24 -14 2 -47 10 -75 16 -27 6 -59 13 -70
16 -11 2 -70 15 -130 28 -61 14 -121 27 -135 30 -14 2 -47 10 -75 16 -27 6
-61 14 -75 16 -80 16 -129 74 -130 153 0 51 35 116 73 134 34 16 42 15 182
-16 87 -20 741 -164 775 -171 14 -2 68 -15 122 -27 l96 -22 179 100 c98 56
194 110 213 121 19 10 161 90 315 178 154 87 290 163 303 168 27 13 38 42 22
61 -18 22 -31 19 -107 -24 -37 -21 -88 -49 -113 -63 -81 -45 -124 -70 -192
-109 -36 -22 -70 -39 -74 -39 -4 0 -15 -6 -23 -14 -9 -7 -45 -29 -81 -48 -36
-20 -139 -77 -230 -129 -212 -119 -231 -129 -240 -124 -5 3 -36 11 -71 19 -35
8 -116 25 -179 39 -63 14 -126 28 -140 31 -14 2 -77 16 -140 31 -63 14 -124
27 -135 29 -11 2 -94 21 -185 41 -91 20 -174 38 -185 40 -119 24 -154 47 -176
112 -14 43 -5 106 22 149 37 60 50 59 351 -7 149 -33 281 -59 292 -57 25 4 33
40 13 56 -11 10 -232 63 -322 78 -16 3 -64 14 -105 24 -41 10 -100 23 -131 30
-60 12 -99 42 -118 93 -35 91 30 214 104 200 11 -2 82 -17 158 -34 632 -135
684 -146 831 -179 l139 -30 38 20 c21 10 125 68 231 128 265 149 285 161 348
195 30 16 71 39 90 51 19 11 100 57 179 101 207 116 210 129 39 169 -219 50
-1029 226 -1041 226 -7 -1 -221 -116 -477 -256z"/>
<path d="M2255 1573 c-82 -47 -168 -95 -190 -107 -22 -13 -168 -95 -325 -184
-157 -88 -298 -166 -312 -172 -21 -10 -45 -8 -130 10 -128 28 -148 29 -161 9
-19 -30 0 -46 70 -62 37 -9 100 -24 140 -33 l71 -16 124 70 c67 38 141 80 163
92 22 13 60 34 85 48 25 14 74 42 110 62 36 21 90 51 120 68 203 112 417 235
429 246 19 20 5 56 -22 55 -12 0 -89 -39 -172 -86z"/>
<path d="M923 1185 l-1 -186 43 26 43 25 46 -52 46 -51 0 199 0 200 -70 12
c-118 20 -107 39 -107 -173z"/>
</g>
</svg>
